<svg width="52" height="72" viewBox="0 0 52 72" fill="none" xmlns="http://www.w3.org/2000/svg">
<path d="M37.5176 50.4593L40.81 45.1167L46.7517 43.0903L47.41 36.8498L51.8803 32.4489L49.7549 26.5418L51.8803 20.6346L47.4101 16.2337L46.7519 9.99338L40.8102 7.96697L37.5177 2.6242L31.2901 3.37612L26 0L20.7098 3.37641L14.4824 2.62448L11.1899 7.96711L5.24822 9.99352L4.58996 16.2339L0.119629 20.6347L2.24504 26.542L0.119629 32.4492L4.58982 36.8499L5.24808 43.0905L11.1898 45.1169L14.4822 50.4595L20.7098 49.7077L26 53.084L31.2901 49.7077L37.5176 50.4593ZM7.79902 26.542C7.79902 16.506 15.964 8.34103 26 8.34103C36.036 8.34103 44.2009 16.506 44.2009 26.542C44.2009 36.578 36.036 44.7429 26 44.7429C15.964 44.7429 7.79902 36.578 7.79902 26.542Z" fill="#F4CC7E"/>
<path d="M26 12.5624C18.2917 12.5624 12.0205 18.8336 12.0205 26.542C12.0205 34.2503 18.2917 40.5215 26 40.5215C33.7084 40.5215 39.9796 34.2503 39.9796 26.542C39.9796 18.8336 33.7084 12.5624 26 12.5624Z" fill="#F4CC7E"/>
<path d="M19.7139 54.0799L12.3058 54.9742L8.39179 48.6226L7.0612 48.169L1.32187 66.1079L11.6543 65.5397L19.7381 72L24.4952 57.1314L19.7139 54.0799Z" fill="#F4CC7E"/>
<path d="M43.6083 48.6228L39.6941 54.9742L32.2861 54.0799L27.5049 57.1314L32.2619 72L40.3458 65.5397L50.6782 66.1079L44.9389 48.169L43.6083 48.6228Z" fill="#F4CC7E"/>
</svg>
