<svg width="71" height="44" viewBox="0 0 71 44" fill="none" xmlns="http://www.w3.org/2000/svg">
<path fill-rule="evenodd" clip-rule="evenodd" d="M50.6152 1.04907C56.771 2.49762 59.1257 6.14783 62.0779 11.1719H50.6152V1.04907ZM14.6407 11.5938C15.846 11.5938 16.7208 12.1837 16.7208 13.5625C16.7208 14.7254 15.7929 15.6686 14.6467 15.6719H2.08008C0.93116 15.6719 0 16.6167 0 17.7812C0 18.9464 0.93116 19.8906 2.08008 19.8906H20.8008C21.9605 19.8906 22.889 20.8344 22.889 22C22.889 23.1651 21.9578 24.1094 20.8089 24.1094H2.08008C0.93116 24.1094 0 25.0536 0 26.2188C0 27.3839 0.93116 28.3281 2.08008 28.3281H6.65625V34.6562C6.65625 35.8214 7.58741 36.7656 8.73633 36.7656H12.9176C13.663 40.4889 16.9071 43.2344 20.7314 43.2344C24.5558 43.2344 27.7999 40.4889 28.5453 36.7656H49.6657C50.411 40.4889 53.6552 43.2344 57.4795 43.2344C61.3038 43.2344 64.548 40.4889 65.2933 36.7656H68.9199C70.0688 36.7656 71 35.8214 71 34.6562V22C71 15.8109 64.5626 15.4 64.5566 15.3906H48.5352C47.3862 15.3906 46.4551 14.4464 46.4551 13.2812V0.625H8.73633C7.58741 0.625 6.65625 1.56927 6.65625 2.73438V7.375H4.16016C3.01124 7.375 2.08008 8.31927 2.08008 9.48438C2.08008 10.6495 3.01124 11.5938 4.16016 11.5938H14.6407ZM60.176 32.4139C61.6651 33.924 61.6651 36.3734 60.176 37.8835C57.7807 40.3126 53.666 38.5844 53.666 35.1484C53.666 31.713 57.7807 29.9849 60.176 32.4139ZM23.428 32.4139C24.9171 33.924 24.9171 36.3734 23.428 37.8835C21.0326 40.3126 16.918 38.5844 16.918 35.1484C16.918 31.713 21.0326 29.9849 23.428 32.4139Z" fill="#F4CC7E"/>
</svg>
