<svg width="63" height="63" viewBox="0 0 63 63" fill="none" xmlns="http://www.w3.org/2000/svg">
<path d="M31.5 0C18.4708 0 7.875 10.5958 7.875 23.625C7.875 40.0011 29.2005 61.5156 30.1061 62.4251C30.492 62.8071 30.996 63 31.5 63C32.004 63 32.508 62.8071 32.8939 62.4251C33.7995 61.5156 55.125 40.0011 55.125 23.625C55.125 10.5958 44.5292 0 31.5 0Z" fill="#F4CC7E"/>
<path d="M31.5 35.4375C38.0239 35.4375 43.3125 30.1489 43.3125 23.625C43.3125 17.1011 38.0239 11.8125 31.5 11.8125C24.9761 11.8125 19.6875 17.1011 19.6875 23.625C19.6875 30.1489 24.9761 35.4375 31.5 35.4375Z" fill="#FAFAFA"/>
</svg>
