<svg width="20" height="16" viewBox="0 0 20 16" fill="none" xmlns="http://www.w3.org/2000/svg">
<path d="M18.0001 16H2.00007C1.46963 16 0.960924 15.7893 0.585851 15.4142C0.210778 15.0391 6.48499e-05 14.5304 6.48499e-05 14V1.913C0.0224975 1.39779 0.243074 0.911159 0.615743 0.554701C0.988412 0.198243 1.48437 -0.000487239 2.00007 8.9712e-07H18.0001C18.5305 8.9712e-07 19.0392 0.210714 19.4143 0.585787C19.7894 0.96086 20.0001 1.46957 20.0001 2V14C20.0001 14.5304 19.7894 15.0391 19.4143 15.4142C19.0392 15.7893 18.5305 16 18.0001 16ZM2.00007 3.868V14H18.0001V3.868L10.0001 9.2L2.00007 3.868ZM2.80007 2L10.0001 6.8L17.2001 2H2.80007Z" fill="#F4CC7E"/>
</svg>
