<svg width="16" height="20" viewBox="0 0 16 20" fill="none" xmlns="http://www.w3.org/2000/svg">
<path d="M8 10.8333C9.38071 10.8333 10.5 9.71396 10.5 8.33325C10.5 6.95254 9.38071 5.83325 8 5.83325C6.61929 5.83325 5.5 6.95254 5.5 8.33325C5.5 9.71396 6.61929 10.8333 8 10.8333Z" stroke="#F4CC7E" stroke-width="2" stroke-linecap="round" stroke-linejoin="round"/>
<path d="M7.99998 1.66663C6.23187 1.66663 4.53618 2.36901 3.28593 3.61925C2.03569 4.86949 1.33331 6.56518 1.33331 8.33329C1.33331 9.90996 1.66831 10.9416 2.58331 12.0833L7.99998 18.3333L13.4166 12.0833C14.3316 10.9416 14.6666 9.90996 14.6666 8.33329C14.6666 6.56518 13.9643 4.86949 12.714 3.61925C11.4638 2.36901 9.76809 1.66663 7.99998 1.66663V1.66663Z" stroke="#F4CC7E" stroke-width="2" stroke-linecap="round" stroke-linejoin="round"/>
</svg>
