<svg width="20" height="20" viewBox="0 0 20 20" fill="none" xmlns="http://www.w3.org/2000/svg">
<path d="M8.79495 5.19994L5.97579 1.94578C5.65079 1.57078 5.05495 1.57244 4.67745 1.95078L2.35912 4.27328C1.66912 4.96411 1.47162 5.98994 1.87079 6.81244C4.25547 11.7499 8.23749 15.7375 13.1716 18.1291C13.9933 18.5283 15.0183 18.3308 15.7083 17.6399L18.0483 15.2958C18.4275 14.9166 18.4283 14.3174 18.05 13.9924L14.7833 11.1883C14.4416 10.8949 13.9108 10.9333 13.5683 11.2766L12.4316 12.4149C12.3734 12.4759 12.2968 12.5161 12.2136 12.5294C12.1303 12.5426 12.045 12.5282 11.9708 12.4883C10.1128 11.4184 8.57161 9.87513 7.50412 8.01578C7.46414 7.9414 7.44967 7.85597 7.46291 7.77257C7.47616 7.68918 7.5164 7.61244 7.57745 7.55411L8.71079 6.41994C9.05412 6.07494 9.09162 5.54161 8.79495 5.19911V5.19994Z" stroke="#F4CC7E" stroke-width="2" stroke-linecap="round" stroke-linejoin="round"/>
</svg>
