<svg width="170" height="76" viewBox="0 0 170 76" fill="#F4CC7E" xmlns="http://www.w3.org/2000/svg">

    <path d="M38.1831 75.9992C17.0952 75.9992 0 59.1467 0 38.3579C0 17.569 17.0952 0.716187 38.1831 0.716187V8.51706C21.465 8.51706 7.91303 21.8776 7.91303 38.3579C7.91303 54.8384 21.465 68.1987 38.1831 68.1987V75.9992Z"/>
    <path d="M38.1836 8.51685C54.9009 8.51685 68.4537 21.8774 68.4537 38.3577C68.4537 54.8382 54.9009 68.1984 38.1836 68.1984V60.7691C50.7392 60.7691 60.9174 50.7354 60.9174 38.3577C60.9174 25.9798 50.7392 15.9459 38.1836 15.9459V8.51685Z"/>
    <path d="M38.1821 60.7707C25.6265 60.7707 15.4482 50.737 15.4482 38.3592C15.4482 25.9814 25.6265 15.9475 38.1821 15.9475V22.8819C29.5108 22.8819 22.4819 29.8112 22.4819 38.3592C22.4819 46.9073 29.5108 53.8368 38.1821 53.8368V60.7707Z"/>
    <path d="M38.1833 29.9395C42.9002 29.9395 46.7242 33.7092 46.7242 38.3594C46.7242 43.0093 42.9002 46.779 38.1833 46.779C33.466 46.779 29.6426 43.0093 29.6426 38.3594C29.6426 33.7092 33.466 29.9395 38.1833 29.9395Z"/>


    <path d="M85.4193 19.3881H80.8141V0.708854H96.7091V19.3881H92.1039V4.60151H85.4193V19.3881Z"/>
    <path fill-rule="evenodd" clip-rule="evenodd"
          d="M99.1313 19.3879H103.737V13.6143H106.947C110.605 13.6143 113.079 10.8972 113.079 7.1352C113.079 3.37347 110.605 0.708854 106.947 0.708854H99.1313V19.3879ZM103.737 4.62723V9.69567H106C107.606 9.69567 108.395 8.62452 108.395 7.1352C108.395 5.64617 107.606 4.62723 106.079 4.62723H103.737Z"/>
    <path fill-rule="evenodd" clip-rule="evenodd"
          d="M114.216 9.5356C114.216 15.0217 118.374 19.306 124.058 19.306C129.742 19.306 133.901 15.0217 133.901 9.5356C133.901 4.1799 129.742 0 124.058 0C118.374 0 114.216 4.1799 114.216 9.5356ZM124.058 4.1799C121.243 4.1799 118.979 6.47907 118.979 9.5356C118.979 12.7228 121.243 15.1264 124.058 15.1264C126.874 15.1264 129.137 12.7228 129.137 9.5356C129.137 6.47907 126.874 4.1799 124.058 4.1799Z"/>
    <path d="M90.2464 47.774H85.6407V33.0136H79.9304V29.0947H95.9572V33.0136H90.2464V47.774Z"/>
    <path d="M110.431 47.774H98.273V29.0947H110.063V33.0136H102.878V36.4099H108.615V40.3282H102.878V43.8549H110.431V47.774Z"/>
    <path d="M118.037 47.774H113.432V29.0947H129.327V47.774H124.722V32.9874H118.037V47.774Z"/>
    <path d="M131.722 47.9831V43.8289C133.959 43.5419 135.485 41.9222 135.485 35.234V29.0947H148.117V47.774H143.511V33.0136H139.854V35.286C139.854 44.4824 137.011 47.9831 131.722 47.9831Z"/>
    <path fill-rule="evenodd" clip-rule="evenodd"
          d="M150.315 38.3168C150.315 43.8032 154.474 48.0875 160.158 48.0875C165.842 48.0875 170 43.8032 170 38.3168C170 32.9614 165.842 28.7809 160.158 28.7809C154.474 28.7809 150.315 32.9614 150.315 38.3168ZM160.158 32.9614C157.342 32.9614 155.079 35.26 155.079 38.3168C155.079 41.5038 157.342 43.9074 160.158 43.9074C162.974 43.9074 165.237 41.5038 165.237 38.3168C165.237 35.26 162.974 32.9614 160.158 32.9614Z"/>
    <path d="M89.9604 76C83.9076 76 80.0916 71.8466 80.0916 66.3077C80.0916 60.8739 84.1444 56.694 89.9604 56.694C92.4871 56.694 95.1713 57.5298 97.0132 59.3326L94.8816 62.7811C93.671 61.7359 91.8555 60.8739 90.1713 60.8739C86.4078 60.8739 84.8553 63.5125 84.8553 66.2031C84.8553 68.9724 86.5392 71.8204 90.1713 71.8204C92.0394 71.8204 93.8819 70.8012 95.1713 69.5214L97.5396 72.8653C95.8819 74.5637 93.4081 76 89.9604 76Z"/>
    <path d="M104.487 75.6868H99.8818V57.0077H104.487V64.4789H111.33V57.0077H115.935V75.6868H111.33V68.3719H104.487V75.6868Z"/>
    <path fill-rule="evenodd" clip-rule="evenodd"
          d="M118.037 75.3762H122.773L123.905 71.4573H129.774L130.932 75.3762H135.669L129.274 56.6971H124.432L118.037 75.3762ZM126.064 64.1683L124.984 67.7997H128.695L127.642 64.1683C127.3 62.993 126.879 60.9555 126.879 60.9555H126.826C126.826 60.9555 126.406 62.993 126.064 64.1683Z"/>
    <path d="M135.062 19.3576L137.952 0.708854L140.705 0.720226L145.043 8.64272L149.38 0.720226H152.271L155.163 19.3576H150.826L149.512 9.31596L145.043 15.4849L140.705 9.31596L139.259 19.3576H135.062Z"/>
    <path fill-rule="evenodd" clip-rule="evenodd"
          d="M138.405 75.3762H146.353C146.353 75.3762 152.133 75.3458 152.133 69.9664C152.133 64.5869 146.353 64.5869 146.353 64.5869L142.795 64.5533V60.967H150.492V56.6971H138.405V75.3762ZM142.795 71.7595V68.1396L145.63 68.1732C145.63 68.1732 147.798 68.1732 147.798 69.9664C147.798 71.7595 145.63 71.7595 145.63 71.7595H142.795Z"/>
</svg>
