<?xml version="1.0" standalone="no"?>
<!DOCTYPE svg PUBLIC "-//W3C//DTD SVG 20010904//EN"
 "http://www.w3.org/TR/2001/REC-SVG-20010904/DTD/svg10.dtd">
<svg version="1.0" xmlns="http://www.w3.org/2000/svg"
 width="2048.000000pt" height="2048.000000pt" viewBox="0 0 2048.000000 2048.000000"
 preserveAspectRatio="xMidYMid meet">
<metadata>
Created by potrace 1.14, written by Peter Selinger 2001-2017
</metadata>
<g transform="translate(0.000000,2048.000000) scale(0.100000,-0.100000)"
fill="#000000" stroke="none">
<path d="M10847 20283 c-1 -1 -65 -4 -142 -8 -77 -3 -160 -8 -185 -10 -25 -2
-85 -7 -135 -10 -49 -3 -101 -8 -115 -10 -14 -2 -60 -6 -103 -10 -43 -3 -86
-8 -95 -9 -9 -2 -48 -7 -87 -11 -38 -4 -77 -8 -85 -10 -8 -1 -42 -6 -75 -10
-32 -4 -66 -8 -75 -10 -8 -1 -35 -6 -60 -9 -25 -3 -56 -8 -70 -11 -14 -2 -70
-11 -125 -20 -55 -9 -201 -36 -325 -61 -274 -55 -257 -52 -281 -59 -11 -4 -32
-8 -47 -10 -124 -18 -976 -268 -1107 -325 -11 -5 -63 -24 -116 -44 -128 -46
-354 -136 -459 -181 -102 -44 -134 -57 -138 -55 -2 1 -13 -5 -25 -13 -12 -8
-59 -30 -104 -50 -239 -105 -747 -372 -982 -516 -45 -28 -84 -51 -86 -51 -9 0
-427 -274 -565 -370 -187 -131 -529 -394 -695 -535 -33 -28 -71 -60 -84 -70
-13 -11 -33 -29 -45 -40 -12 -11 -39 -35 -61 -54 -151 -128 -597 -563 -775
-756 -108 -117 -446 -515 -492 -580 -4 -5 -20 -26 -36 -45 -204 -250 -535
-735 -750 -1102 -74 -125 -101 -173 -202 -358 -44 -81 -205 -405 -265 -535
-58 -124 -213 -484 -219 -510 -2 -5 -8 -23 -15 -40 -13 -33 -36 -95 -74 -195
-55 -148 -206 -607 -222 -680 -2 -8 -26 -98 -53 -200 -47 -171 -133 -546 -146
-632 -3 -21 -10 -57 -15 -80 -5 -24 -12 -59 -15 -78 -3 -19 -8 -45 -10 -56 -2
-12 -7 -39 -10 -60 -4 -22 -13 -79 -21 -129 -14 -93 -17 -110 -35 -255 -6 -47
-13 -96 -15 -109 -2 -13 -7 -58 -10 -100 -4 -42 -8 -87 -10 -101 -2 -14 -7
-63 -10 -110 -4 -47 -8 -105 -11 -130 -26 -315 -26 -1203 0 -1450 2 -19 7 -80
11 -135 3 -55 8 -107 10 -115 2 -8 7 -49 10 -91 3 -42 7 -85 9 -95 2 -11 7
-44 10 -75 4 -31 8 -66 11 -77 2 -12 6 -45 9 -74 4 -29 8 -64 10 -78 3 -14 10
-59 16 -100 7 -41 14 -84 16 -95 2 -10 6 -37 10 -60 42 -292 193 -914 313
-1290 23 -71 43 -134 45 -140 2 -5 5 -17 8 -25 4 -8 25 -71 48 -140 23 -69 48
-138 55 -155 8 -16 24 -59 36 -95 13 -36 29 -76 36 -90 7 -14 13 -29 13 -33 0
-5 6 -23 14 -40 7 -18 30 -72 51 -122 20 -49 43 -103 50 -120 7 -16 31 -70 53
-120 43 -98 177 -381 191 -405 5 -8 29 -53 52 -100 24 -47 74 -140 111 -208
37 -67 68 -125 68 -128 0 -3 8 -18 19 -32 10 -15 31 -49 46 -77 43 -77 210
-347 294 -475 567 -863 1313 -1688 2106 -2325 39 -31 77 -62 85 -68 8 -7 58
-45 110 -85 52 -40 103 -80 113 -88 36 -30 393 -282 425 -300 17 -10 32 -22
32 -26 0 -4 4 -8 10 -8 5 0 44 -24 87 -53 43 -29 103 -68 133 -86 136 -84 284
-174 318 -193 20 -11 89 -50 152 -86 126 -71 582 -303 725 -369 410 -189 940
-388 1365 -513 105 -31 128 -37 185 -54 46 -14 200 -54 235 -61 8 -2 62 -15
119 -30 99 -25 124 -30 246 -55 64 -13 75 -15 165 -34 41 -9 93 -18 115 -21
22 -4 56 -10 75 -15 19 -5 60 -12 90 -15 30 -4 57 -8 60 -10 5 -3 82 -15 138
-21 18 -1 41 -5 50 -8 9 -3 44 -8 77 -11 33 -4 85 -10 115 -15 30 -5 87 -12
125 -15 39 -4 84 -8 100 -10 86 -10 156 -17 213 -20 35 -2 95 -7 135 -10 109
-10 198 -14 478 -21 l256 -6 0 1046 c0 576 2 1049 5 1051 3 3 94 7 204 10 221
6 286 9 558 30 56 5 116 11 269 30 60 8 187 26 217 31 14 2 45 6 70 10 25 3
52 7 60 9 8 3 33 7 55 11 22 3 74 12 115 20 41 8 86 17 100 20 61 11 225 48
335 76 66 16 127 31 135 33 66 16 357 104 495 150 261 88 386 135 520 192 33
14 74 31 90 38 489 202 1105 547 1550 869 120 86 267 197 275 205 3 3 34 28
70 56 36 27 74 57 85 67 102 85 163 136 181 153 11 11 54 49 95 85 244 215
579 559 778 800 30 36 57 67 60 70 27 21 304 388 417 550 624 902 1048 1898
1263 2965 30 152 46 238 56 310 3 23 7 52 10 65 3 14 7 45 10 70 9 78 14 111
19 138 3 15 8 61 12 102 3 41 8 83 9 92 2 10 7 59 10 110 4 51 9 109 10 128
23 232 22 891 0 1120 -2 19 -6 71 -10 115 -3 44 -8 96 -10 115 -2 19 -7 60
-10 90 -8 71 -12 108 -26 200 -6 41 -12 93 -15 115 -2 22 -6 49 -9 61 -3 12
-7 39 -10 60 -20 132 -121 606 -150 703 -8 25 -33 111 -55 190 -223 780 -593
1567 -1058 2251 -80 118 -336 464 -398 539 -70 84 -206 244 -217 256 -7 7 -52
58 -102 114 -101 113 -452 462 -564 561 -40 36 -80 72 -89 80 -107 103 -556
451 -777 601 -506 345 -1064 640 -1620 856 -77 30 -149 58 -160 63 -81 35
-637 211 -745 235 -8 2 -71 17 -140 34 -122 29 -300 69 -350 77 -14 3 -32 7
-40 9 -8 3 -32 7 -54 11 -21 3 -48 8 -60 10 -35 7 -189 33 -226 38 -101 14
-137 19 -155 22 -11 2 -47 6 -82 9 -34 3 -70 7 -80 9 -28 6 -214 23 -323 30
-186 13 -329 19 -457 20 l-143 1 -1 30 c0 16 -1 490 -1 1052 l-1 1022 -189 -2
c-104 -1 -190 -3 -191 -4z m368 -2105 c7 -4 10 -369 10 -1000 l0 -993 -70 -1
c-112 -2 -391 -14 -411 -18 -11 -2 -62 -7 -114 -11 -52 -4 -97 -8 -100 -10 -3
-2 -36 -6 -75 -9 -38 -4 -77 -9 -85 -11 -8 -2 -37 -6 -65 -10 -27 -3 -102 -15
-165 -26 -122 -22 -119 -22 -165 -32 -16 -4 -41 -9 -55 -11 -14 -2 -83 -18
-155 -35 -667 -161 -1335 -448 -1905 -820 -97 -63 -305 -209 -365 -256 -330
-257 -581 -487 -825 -754 -47 -52 -90 -99 -95 -105 -6 -6 -49 -58 -95 -116
-47 -58 -88 -107 -91 -110 -3 -3 -39 -50 -80 -105 -333 -444 -589 -898 -779
-1380 -34 -88 -68 -173 -75 -190 -50 -121 -168 -528 -210 -724 -2 -9 -10 -48
-19 -86 -22 -105 -49 -256 -61 -345 -3 -25 -8 -56 -10 -70 -7 -50 -15 -116
-20 -175 -4 -33 -8 -71 -10 -85 -25 -164 -26 -933 -1 -1080 3 -14 7 -59 11
-100 3 -41 8 -88 10 -105 3 -16 7 -48 10 -70 17 -123 26 -180 30 -199 3 -12 7
-32 9 -46 133 -807 489 -1661 993 -2380 89 -128 290 -391 312 -410 4 -3 19
-21 35 -40 174 -214 513 -546 776 -761 191 -156 525 -399 549 -399 5 0 11 -4
13 -8 5 -13 264 -168 413 -248 164 -89 316 -162 475 -231 69 -29 134 -58 145
-63 94 -43 579 -207 670 -226 6 -1 73 -18 150 -37 77 -20 151 -38 165 -41 14
-2 84 -16 155 -30 180 -35 260 -48 380 -62 33 -3 68 -8 77 -9 15 -3 64 -8 198
-21 96 -8 241 -16 371 -18 75 -2 140 -6 145 -9 5 -3 9 -440 9 -999 l0 -993
-145 1 c-139 2 -352 10 -455 19 -27 2 -84 7 -125 10 -41 4 -86 8 -100 10 -14
2 -54 7 -90 10 -36 4 -76 8 -90 10 -14 2 -50 6 -80 9 -30 4 -68 9 -85 13 -16
3 -41 7 -55 8 -60 7 -137 19 -305 52 -238 45 -228 43 -247 49 -9 3 -25 7 -35
9 -113 24 -166 36 -172 40 -4 2 -21 6 -37 9 -203 36 -939 283 -1204 404 -101
46 -161 72 -166 72 -8 0 -480 235 -534 266 -392 224 -389 222 -610 368 -129
85 -369 253 -380 266 -3 3 -21 17 -40 30 -19 14 -44 32 -55 41 -11 10 -66 53
-122 98 -358 283 -703 614 -1068 1025 -5 6 -32 38 -60 71 -27 33 -52 62 -55
65 -20 18 -276 349 -344 445 -81 115 -268 398 -336 510 -273 448 -548 1027
-699 1470 -23 66 -45 129 -50 140 -29 66 -178 594 -205 730 -3 11 -16 72 -29
135 -26 118 -70 359 -81 441 -4 25 -9 57 -11 70 -6 35 -24 175 -30 239 -3 30
-8 66 -10 80 -2 14 -7 63 -10 110 -4 47 -8 102 -10 123 -25 275 -25 917 0
1187 2 25 7 77 10 115 11 123 24 252 30 285 4 24 9 58 20 145 2 22 7 49 9 60
2 11 9 56 16 100 7 44 14 89 16 100 2 11 7 36 10 55 4 19 8 42 9 50 2 8 20 89
40 180 20 91 38 175 41 188 45 217 241 831 339 1062 12 30 33 80 45 110 71
175 307 672 339 715 5 6 27 46 51 90 180 338 509 825 793 1175 35 42 164 196
177 210 8 9 49 55 90 101 93 105 496 508 609 609 46 41 143 124 215 184 72 59
140 116 151 125 12 10 68 53 125 96 58 44 110 84 116 90 6 5 22 17 34 25 12 8
45 32 73 53 28 20 53 37 57 37 3 0 15 8 26 18 26 23 373 250 439 287 17 9 71
41 153 90 148 89 654 344 777 393 28 11 75 31 105 45 216 97 821 309 1008 352
9 2 53 14 97 26 44 11 87 22 95 24 8 2 64 15 123 30 106 25 319 70 386 81 18
3 43 8 55 10 44 9 205 34 316 49 63 9 126 18 140 20 14 2 54 6 90 10 36 3 81
8 100 10 19 2 76 7 125 10 50 4 106 8 125 10 19 2 112 7 205 10 94 4 171 8
172 8 5 5 160 0 168 -5z m255 -2002 c102 -4 199 -9 215 -10 17 -2 66 -6 110
-10 220 -18 546 -69 780 -122 11 -2 30 -6 42 -8 31 -6 213 -53 298 -77 39 -11
77 -22 85 -24 8 -2 67 -20 130 -41 63 -21 117 -39 120 -39 3 -1 12 -4 20 -7 8
-4 78 -30 155 -59 129 -48 205 -79 375 -155 118 -52 383 -189 510 -263 69 -41
134 -79 145 -85 171 -99 521 -351 729 -525 441 -368 844 -816 1149 -1276 48
-71 90 -135 95 -140 5 -6 11 -15 13 -20 2 -6 34 -59 70 -120 192 -320 353
-661 484 -1020 77 -213 171 -532 210 -715 2 -8 8 -35 14 -60 12 -53 19 -92 27
-140 3 -19 8 -43 10 -53 3 -10 8 -35 10 -55 2 -20 8 -59 14 -87 5 -27 12 -75
15 -105 3 -30 8 -62 10 -70 2 -8 7 -51 11 -95 3 -44 8 -88 9 -97 27 -139 27
-914 0 -1123 -2 -16 -7 -57 -10 -90 -3 -33 -8 -73 -10 -90 -13 -89 -46 -304
-50 -325 -3 -14 -7 -36 -10 -50 -120 -642 -366 -1296 -716 -1900 -7 -14 -16
-27 -19 -30 -3 -3 -14 -21 -24 -40 -61 -112 -336 -506 -461 -659 -118 -144
-284 -328 -417 -462 -246 -248 -323 -316 -648 -572 -125 -99 -413 -292 -575
-387 -16 -10 -70 -41 -120 -70 -149 -87 -538 -274 -725 -348 -238 -95 -631
-225 -743 -246 -12 -2 -67 -16 -122 -30 -55 -14 -111 -27 -125 -30 -23 -4
-227 -44 -260 -51 -8 -1 -37 -6 -65 -9 -27 -4 -75 -11 -105 -16 -71 -11 -111
-16 -245 -30 -60 -6 -126 -12 -145 -15 -31 -3 -181 -10 -417 -20 l-83 -3 -1
32 c0 17 -1 437 -1 934 -1 656 -4 902 -12 903 -6 1 -49 2 -96 4 -101 3 -296
15 -322 20 -11 2 -47 7 -81 10 -34 3 -87 10 -117 15 -30 5 -72 11 -93 15 -320
46 -773 189 -1119 353 -116 55 -321 167 -398 217 -19 12 -62 40 -95 61 -150
96 -408 294 -520 399 -302 283 -476 485 -679 790 -63 94 -128 197 -146 230
-19 33 -41 74 -51 90 -17 29 -102 200 -139 280 -110 236 -260 709 -286 902 -3
26 -8 50 -9 53 -2 3 -6 24 -9 46 -4 22 -8 50 -11 63 -2 13 -7 49 -10 80 -4 31
-8 67 -10 81 -22 153 -33 523 -21 695 9 116 27 295 33 330 2 17 6 39 7 50 37
274 161 726 261 950 7 17 34 77 60 135 334 756 940 1432 1680 1874 149 89 446
237 585 291 93 37 280 103 310 110 8 2 35 10 60 19 39 13 259 71 315 82 56 12
306 54 350 60 28 3 61 7 75 9 27 4 171 16 235 21 22 1 88 3 146 5 l107 2 0
886 c0 487 1 907 1 933 1 40 4 47 24 50 12 2 24 3 27 2 3 -1 88 -5 190 -8z"/>
<path d="M11217 12414 c-1 -1 -60 -4 -132 -7 -71 -4 -139 -8 -150 -10 -11 -3
-42 -8 -70 -11 -27 -4 -70 -12 -95 -17 -25 -6 -52 -12 -60 -14 -8 -2 -35 -8
-60 -14 -25 -7 -55 -14 -67 -16 -89 -20 -329 -118 -458 -188 -87 -47 -255
-153 -265 -166 -3 -4 -21 -18 -40 -31 -41 -29 -74 -56 -149 -125 -278 -254
-477 -547 -605 -889 -43 -115 -102 -335 -111 -421 -4 -33 -9 -63 -11 -66 -7
-12 -18 -188 -18 -289 0 -99 9 -245 18 -300 2 -14 8 -47 12 -75 17 -113 70
-320 103 -400 68 -165 90 -213 128 -285 148 -277 370 -540 613 -727 30 -24 60
-47 67 -53 90 -75 366 -223 531 -285 281 -105 531 -150 832 -149 383 0 717 80
1055 252 529 269 934 734 1123 1287 33 96 76 260 87 335 4 25 9 54 11 65 19
101 26 438 11 570 -93 868 -694 1614 -1530 1901 -94 32 -218 67 -282 78 -16 3
-41 8 -55 11 -14 3 -43 7 -65 10 -22 3 -51 7 -65 10 -43 8 -296 24 -303 19z"/>
</g>
</svg>
